<?xml version="1.0" encoding="utf-8"?>
<!-- Generator: Adobe Illustrator 24.2.0, SVG Export Plug-In . SVG Version: 6.00 Build 0)  -->
<svg version="1.1" id="Layer_1" xmlns="http://www.w3.org/2000/svg" xmlns:xlink="http://www.w3.org/1999/xlink" x="0px" y="0px"
	 viewBox="0 0 1000 1000" style="enable-background:new 0 0 1000 1000;" xml:space="preserve">
<style type="text/css">
	.st0{fill:#30416A;}
	.st1{fill:#257ABC;}
	.st2{fill:#2CADE3;}
</style>
<g>
	<path class="st0" d="M741.7,357.7v283L501.2,783l-2.2,2v105.8l2.2,2l338.7-195.6V302.8l-3.2-0.8l-95.5,53.4L741.7,357.7"/>
	<path class="st1" d="M259.9,643.1l241.3,140v109.8l-341-196.4V303.6l3.5-0.5l95.2,55.4l1,3.2V643.1"/>
	<path class="st2" d="M259.9,361.6l-99.8-58l340.3-196.4l339.5,195.6l-98.2,54.9L500.4,220.1L259.9,361.6"/>
	<path class="st0" d="M497,610.7l-2.6-2.7V501.7l2.6-1.3l0.6-2.6l91.1-53.1l2.8,0.6v109.5L497,610.7"/>
	<path class="st1" d="M400.9,558.2V444.5l2.6-0.1l92.7,53.9l0.8,2.1v110.3L400.9,558.2"/>
	<path class="st2" d="M495.4,388.5l-94.5,55.9l96.1,55.9l94.5-55.1L495.4,388.5"/>
	<path class="st0" d="M379.4,680l-2.6-2.7V571.1l2.6-1.3l0.6-2.6l91.1-53.1l2.8,0.6v109.5L379.4,680"/>
	<path class="st1" d="M283.3,627.5V513.8l2.6-0.1l92.7,53.9l0.8,2.1V680L283.3,627.5"/>
	<path class="st2" d="M377.8,457.9l-94.5,55.9l96.1,55.9l94.5-55.1L377.8,457.9"/>
	<path class="st0" d="M623.1,682.6l-2.6-2.7V573.7l2.6-1.3l0.6-2.6l91.1-53.1l2.8,0.6v109.5L623.1,682.6"/>
	<path class="st1" d="M527,630.1V516.4l2.6-0.1l92.7,53.9l0.8,2.1v110.3L527,630.1"/>
	<path class="st2" d="M621.5,460.5L527,516.4l96.1,55.9l94.5-55.1L621.5,460.5"/>
	<path class="st0" d="M505.4,752l-2.6-2.7V643l2.6-1.3l0.6-2.6l91.1-53.1l2.8,0.6V696L505.4,752"/>
	<path class="st1" d="M409.3,699.4V585.7l2.6-0.1l92.7,53.9l0.8,2.1V752L409.3,699.4"/>
	<path class="st2" d="M503.8,529.8l-94.5,55.9l96.1,55.9l94.5-55.1L503.8,529.8"/>
	<path class="st0" d="M497,460l-2.6-2.7V351l2.6-1.3l0.6-2.6l91.1-53.1l2.8,0.6V404L497,460"/>
	<path class="st1" d="M400.9,407.4V293.7l2.6-0.1l92.7,53.9l0.8,2.1V460L400.9,407.4"/>
	<path class="st2" d="M495.4,237.8l-94.5,55.9l96.1,55.9l94.5-55.1L495.4,237.8"/>
	<path class="st0" d="M379.4,529.3l-2.6-2.7V420.3l2.6-1.3l0.6-2.6l91.1-53.1l2.8,0.6v109.5L379.4,529.3"/>
	<path class="st1" d="M283.3,476.8V363.1l2.6-0.1l92.7,53.9l0.8,2.1v110.3L283.3,476.8"/>
	<path class="st2" d="M377.8,307.1l-94.5,55.9l96.1,55.9l94.5-55.1L377.8,307.1"/>
	<path class="st0" d="M623.1,531.9l-2.6-2.7V423l2.6-1.3l0.6-2.6l91.1-53.1l2.8,0.6V476L623.1,531.9"/>
	<path class="st1" d="M527,479.4V365.7l2.6-0.1l92.7,53.9l0.8,2.1v110.3L527,479.4"/>
	<path class="st2" d="M621.5,309.8L527,365.7l96.1,55.9l94.5-55.1L621.5,309.8"/>
	<path class="st0" d="M505.4,601.2l-2.6-2.7V492.3l2.6-1.3l0.6-2.6l91.1-53.1l2.8,0.6v109.5L505.4,601.2"/>
	<path class="st1" d="M409.3,548.7V435l2.6-0.1l92.7,53.9l0.8,2.1v110.3L409.3,548.7"/>
	<path class="st2" d="M503.8,379.1L409.3,435l96.1,55.9l94.5-55.1L503.8,379.1"/>
</g>
</svg>
